<svg version="1.0" xmlns="http://www.w3.org/2000/svg"
 width="1000.000000pt" height="1000.000000pt" viewBox="0 0 1000.000000 1000.000000"
 preserveAspectRatio="xMidYMid meet">

<g transform="translate(0.000000,1000.000000) scale(0.100000,-0.100000)"
fill="#000000" stroke="none">
<path d="M2250 5000 l0 -1580 415 0 415 0 0 1580 0 1580 -415 0 -415 0 0
-1580z"/>
<path d="M3750 5000 l0 -1580 415 0 415 0 0 1580 0 1580 -415 0 -415 0 0
-1580z"/>
<path d="M5250 5000 l0 -1580 415 0 415 0 0 580 0 580 420 0 420 0 0 -580 0
-580 415 0 415 0 0 1580 0 1580 -415 0 -415 0 0 -580 0 -580 -420 0 -420 0 0
580 0 580 -415 0 -415 0 0 -1580z"/>
</g>
</svg>
