<?xml version="1.0" encoding="UTF-8"?>
<!DOCTYPE svg PUBLIC "-//W3C//DTD SVG 1.1//EN" "http://www.w3.org/Graphics/SVG/1.1/DTD/svg11.dtd">
<svg xmlns="http://www.w3.org/2000/svg" version="1.1" width="500px" height="500px" style="shape-rendering:geometricPrecision; text-rendering:geometricPrecision; image-rendering:optimizeQuality; fill-rule:evenodd; clip-rule:evenodd" xmlns:xlink="http://www.w3.org/1999/xlink">
<g><path style="opacity:0.995" fill="#fdfcfa" d="M 227.5,-0.5 C 242.167,-0.5 256.833,-0.5 271.5,-0.5C 366.89,11.4161 435.723,60.4161 478,146.5C 489.396,172.499 496.563,199.499 499.5,227.5C 499.5,242.167 499.5,256.833 499.5,271.5C 487.584,366.89 438.584,435.723 352.5,478C 326.501,489.396 299.501,496.563 271.5,499.5C 256.833,499.5 242.167,499.5 227.5,499.5C 132.11,487.584 63.2768,438.584 21,352.5C 9.60385,326.501 2.43719,299.501 -0.5,271.5C -0.5,256.833 -0.5,242.167 -0.5,227.5C 11.4161,132.11 60.4161,63.2768 146.5,21C 172.499,9.60385 199.499,2.43719 227.5,-0.5 Z"/></g>
<g><path style="opacity:1" fill="#010000" d="M 112.5,170.5 C 126.167,170.5 139.833,170.5 153.5,170.5C 153.5,223.167 153.5,275.833 153.5,328.5C 139.833,328.5 126.167,328.5 112.5,328.5C 112.5,275.833 112.5,223.167 112.5,170.5 Z"/></g>
<g><path style="opacity:1" fill="#000000" d="M 187.5,170.5 C 201.167,170.5 214.833,170.5 228.5,170.5C 228.5,223.167 228.5,275.833 228.5,328.5C 214.833,328.5 201.167,328.5 187.5,328.5C 187.5,275.833 187.5,223.167 187.5,170.5 Z"/></g>
<g><path style="opacity:1" fill="#010000" d="M 306.5,228.5 C 319.5,228.5 332.5,228.5 345.5,228.5C 345.5,209.167 345.5,189.833 345.5,170.5C 359.167,170.5 372.833,170.5 386.5,170.5C 386.5,223.167 386.5,275.833 386.5,328.5C 372.833,328.5 359.167,328.5 345.5,328.5C 345.5,309.167 345.5,289.833 345.5,270.5C 332.5,270.5 319.5,270.5 306.5,270.5C 305.5,270.5 304.5,270.5 303.5,270.5C 303.5,289.833 303.5,309.167 303.5,328.5C 289.833,328.5 276.167,328.5 262.5,328.5C 262.5,275.833 262.5,223.167 262.5,170.5C 276.167,170.5 289.833,170.5 303.5,170.5C 303.5,189.833 303.5,209.167 303.5,228.5C 304.5,228.5 305.5,228.5 306.5,228.5 Z"/></g>
<g><path style="opacity:1" fill="#cbcac8" d="M 306.5,228.5 C 305.5,228.5 304.5,228.5 303.5,228.5C 303.5,209.167 303.5,189.833 303.5,170.5C 289.833,170.5 276.167,170.5 262.5,170.5C 262.5,223.167 262.5,275.833 262.5,328.5C 262.167,328.5 261.833,328.5 261.5,328.5C 261.5,275.5 261.5,222.5 261.5,169.5C 276.542,169.467 291.376,169.467 306,169.5C 306.5,189.164 306.667,208.831 306.5,228.5 Z"/></g>
<g><path style="opacity:1" fill="#edecea" d="M 306.5,270.5 C 306.667,290.169 306.5,309.836 306,329.5C 305.667,329.833 305.333,330.167 305,330.5C 290.402,329.841 275.902,329.174 261.5,328.5C 261.833,328.5 262.167,328.5 262.5,328.5C 276.167,328.5 289.833,328.5 303.5,328.5C 303.5,309.167 303.5,289.833 303.5,270.5C 304.5,270.5 305.5,270.5 306.5,270.5 Z"/></g>
</svg>
