<svg version="1.1" id="Layer_1" xmlns="http://www.w3.org/2000/svg" xmlns:xlink="http://www.w3.org/1999/xlink" x="0px" y="0px"
	 width="100%" viewBox="0 0 500 500" enable-background="new 0 0 500 500" xml:space="preserve">
<path fill="#FFFFFF" opacity="1.000000" stroke="none" 
	d="
M219.000000,1.000002 
	C240.020889,1.000000 261.041779,1.000000 282.229919,1.364966 
	C283.066986,2.147660 283.687073,2.787605 284.413971,2.950312 
	C299.010162,6.217582 313.848938,8.645494 328.167236,12.848955 
	C346.674744,18.282255 363.962738,26.726486 380.557373,36.754398 
	C405.848999,52.037800 427.891113,70.971062 446.287170,93.959946 
	C460.303345,111.475456 471.976990,130.544693 480.791901,151.304443 
	C489.764893,172.436493 496.289276,194.196518 499.075562,217.032806 
	C499.163788,217.756042 500.334137,218.347244 501.000000,219.000000 
	C501.000000,240.020889 501.000000,261.041779 500.635040,282.229919 
	C499.852356,283.066986 499.212402,283.687073 499.049683,284.413971 
	C495.782379,299.010162 493.354553,313.848969 489.151093,328.167267 
	C483.717804,346.674774 475.273560,363.962769 465.245605,380.557404 
	C449.962189,405.848969 431.029022,427.891144 408.040100,446.287140 
	C390.524567,460.303314 371.455383,471.976959 350.695648,480.791901 
	C329.563599,489.764954 307.803558,496.289215 284.967285,499.075592 
	C284.244019,499.163849 283.652802,500.334137 283.000000,501.000000 
	C261.979095,501.000000 240.958206,501.000000 219.770096,500.635071 
	C218.933044,499.852386 218.312958,499.212372 217.586029,499.049652 
	C202.989838,495.782379 188.151016,493.354584 173.832733,489.151093 
	C155.325241,483.717773 138.037231,475.273529 121.442589,465.245605 
	C96.150978,449.962189 74.108841,431.028961 55.712818,408.040070 
	C41.696674,390.524567 30.023012,371.455353 21.208088,350.695618 
	C12.235083,329.563599 5.710746,307.803558 2.924391,284.967285 
	C2.836139,284.244019 1.665855,283.652771 0.999998,283.000000 
	C1.000000,261.979095 1.000000,240.958206 1.364943,219.770096 
	C2.147624,218.933151 2.787601,218.313187 2.950289,217.586380 
	C6.217509,202.990143 8.645272,188.151291 12.848793,173.833008 
	C18.282173,155.325531 26.726320,138.037445 36.754269,121.442787 
	C52.037701,96.151154 70.970901,74.108963 93.959831,55.712910 
	C111.475388,41.696728 130.544617,30.023060 151.304398,21.208117 
	C172.436447,12.235099 194.196503,5.710728 217.032822,2.924394 
	C217.756058,2.836149 218.347260,1.665862 219.000000,1.000002 
M306.937408,271.922791 
	C319.951324,271.992188 332.965240,272.061584 346.120422,272.528107 
	C346.252106,272.803040 346.467560,272.969666 346.889893,273.954468 
	C346.889893,292.542175 346.889893,311.129883 346.889893,329.846069 
	C360.974792,329.846069 374.541351,329.846069 388.124756,329.846069 
	C388.124756,277.102234 388.124756,224.612274 388.124756,172.233185 
	C374.175873,172.233185 360.612244,172.233185 346.766754,172.233185 
	C346.766754,191.367294 346.766754,210.169769 346.380707,229.141006 
	C346.167419,229.339905 346.033508,229.582596 345.064972,230.078186 
	C332.048859,230.019318 319.032776,229.960434 305.879150,229.495621 
	C305.750824,229.213989 305.535645,229.039398 305.110870,228.045380 
	C305.110870,209.445023 305.110870,190.844681 305.110870,172.121857 
	C291.042877,172.121857 277.466187,172.121857 263.854706,172.121857 
	C263.854706,224.855927 263.854706,277.369995 263.854706,329.770752 
	C277.795715,329.770752 291.365509,329.770752 305.233612,329.770752 
	C305.233612,310.639160 305.233612,291.833496 305.621582,272.846313 
	C305.833496,272.639404 305.965210,272.390106 306.937408,271.922791 
M188.485870,288.499695 
	C188.485870,302.276520 188.485870,316.053375 188.485870,329.840881 
	C202.628708,329.840881 216.213562,329.840881 229.757111,329.840881 
	C229.757111,277.066498 229.757111,224.548630 229.757111,172.046295 
	C215.942001,172.046295 202.471817,172.046295 188.485901,172.046295 
	C188.485901,210.624588 188.485901,249.062134 188.485870,288.499695 
M127.504311,330.096649 
	C136.607300,330.096649 145.710281,330.096649 154.739166,330.096649 
	C154.739166,277.049103 154.739166,224.523346 154.739166,172.243851 
	C140.806274,172.243851 127.234428,172.243851 113.781219,172.243851 
	C113.781219,224.990372 113.781219,277.393799 113.781219,330.096649 
	C118.212280,330.096649 122.358810,330.096649 127.504311,330.096649 
z"/>
<path fill="#000000" opacity="1.000000" stroke="none" 
	d="
M218.531342,1.000002 
	C218.347260,1.665862 217.756058,2.836149 217.032822,2.924394 
	C194.196503,5.710728 172.436447,12.235099 151.304398,21.208117 
	C130.544617,30.023060 111.475388,41.696728 93.959831,55.712910 
	C70.970901,74.108963 52.037701,96.151154 36.754269,121.442787 
	C26.726320,138.037445 18.282173,155.325531 12.848793,173.833008 
	C8.645272,188.151291 6.217509,202.990143 2.950289,217.586380 
	C2.787601,218.313187 2.147624,218.933151 1.364943,219.301437 
	C1.000000,146.406296 1.000000,73.812584 1.000000,1.000000 
	C73.354080,1.000000 145.708389,1.000000 218.531342,1.000002 
z"/>
<path fill="#000000" opacity="1.000000" stroke="none" 
	d="
M501.000000,218.531342 
	C500.334137,218.347244 499.163788,217.756042 499.075562,217.032806 
	C496.289276,194.196518 489.764893,172.436493 480.791901,151.304443 
	C471.976990,130.544693 460.303345,111.475456 446.287170,93.959946 
	C427.891113,70.971062 405.848999,52.037800 380.557373,36.754398 
	C363.962738,26.726486 346.674744,18.282255 328.167236,12.848955 
	C313.848938,8.645494 299.010162,6.217582 284.413971,2.950312 
	C283.687073,2.787605 283.066986,2.147660 282.698608,1.364966 
	C355.593689,1.000000 428.187408,1.000000 501.000000,1.000000 
	C501.000000,73.354080 501.000000,145.708389 501.000000,218.531342 
z"/>
<path fill="#000000" opacity="1.000000" stroke="none" 
	d="
M0.999998,283.468658 
	C1.665855,283.652771 2.836139,284.244019 2.924391,284.967285 
	C5.710746,307.803558 12.235083,329.563599 21.208088,350.695618 
	C30.023012,371.455353 41.696674,390.524567 55.712818,408.040070 
	C74.108841,431.028961 96.150978,449.962189 121.442589,465.245605 
	C138.037231,475.273529 155.325241,483.717773 173.832733,489.151093 
	C188.151016,493.354584 202.989838,495.782379 217.586029,499.049652 
	C218.312958,499.212372 218.933044,499.852386 219.301437,500.635071 
	C146.406296,501.000000 73.812607,501.000000 1.000000,501.000000 
	C1.000000,428.645905 1.000000,356.291626 0.999998,283.468658 
z"/>
<path fill="#000000" opacity="1.000000" stroke="none" 
	d="
M283.468658,501.000000 
	C283.652802,500.334137 284.244019,499.163849 284.967285,499.075592 
	C307.803558,496.289215 329.563599,489.764954 350.695648,480.791901 
	C371.455383,471.976959 390.524567,460.303314 408.040100,446.287140 
	C431.029022,427.891144 449.962189,405.848969 465.245605,380.557404 
	C475.273560,363.962769 483.717804,346.674774 489.151093,328.167267 
	C493.354553,313.848969 495.782379,299.010162 499.049683,284.413971 
	C499.212402,283.687073 499.852356,283.066986 500.635040,282.698608 
	C501.000000,355.593689 501.000000,428.187408 501.000000,501.000000 
	C428.645905,501.000000 356.291626,501.000000 283.468658,501.000000 
z"/>
<path fill="#000000" opacity="1.000000" stroke="none" 
	d="
M306.016663,229.901550 
	C319.032776,229.960434 332.048859,230.019318 345.801941,229.998596 
	C346.614868,229.603424 346.690826,229.287842 346.766785,228.972260 
	C346.766754,210.169769 346.766754,191.367294 346.766754,172.233185 
	C360.612244,172.233185 374.175873,172.233185 388.124756,172.233185 
	C388.124756,224.612274 388.124756,277.102234 388.124756,329.846069 
	C374.541351,329.846069 360.974792,329.846069 346.889893,329.846069 
	C346.889893,311.129883 346.889893,292.542175 346.908020,273.221680 
	C346.610504,272.369568 346.294830,272.250275 345.979156,272.130981 
	C332.965240,272.061584 319.951324,271.992188 306.189728,271.968994 
	C305.372559,272.352753 305.303101,272.690308 305.233643,273.027863 
	C305.233612,291.833496 305.233612,310.639160 305.233612,329.770752 
	C291.365509,329.770752 277.795715,329.770752 263.854706,329.770752 
	C263.854706,277.369995 263.854706,224.855927 263.854706,172.121857 
	C277.466187,172.121857 291.042877,172.121857 305.110870,172.121857 
	C305.110870,190.844681 305.110870,209.445023 305.094788,228.788467 
	C305.391357,229.654892 305.704010,229.778229 306.016663,229.901550 
z"/>
<path fill="#000000" opacity="1.000000" stroke="none" 
	d="
M188.485886,287.999695 
	C188.485901,249.062134 188.485901,210.624588 188.485901,172.046295 
	C202.471817,172.046295 215.942001,172.046295 229.757111,172.046295 
	C229.757111,224.548630 229.757111,277.066498 229.757111,329.840881 
	C216.213562,329.840881 202.628708,329.840881 188.485870,329.840881 
	C188.485870,316.053375 188.485870,302.276520 188.485886,287.999695 
z"/>
<path fill="#000000" opacity="1.000000" stroke="none" 
	d="
M127.004822,330.096649 
	C122.358810,330.096649 118.212280,330.096649 113.781219,330.096649 
	C113.781219,277.393799 113.781219,224.990372 113.781219,172.243851 
	C127.234428,172.243851 140.806274,172.243851 154.739166,172.243851 
	C154.739166,224.523346 154.739166,277.049103 154.739166,330.096649 
	C145.710281,330.096649 136.607300,330.096649 127.004822,330.096649 
z"/>
<path fill="#D4D5D5" opacity="1.000000" stroke="none" 
	d="
M305.947906,229.698578 
	C305.704010,229.778229 305.391357,229.654892 305.156158,229.251709 
	C305.535645,229.039398 305.750824,229.213989 305.947906,229.698578 
z"/>
<path fill="#D5D5D5" opacity="1.000000" stroke="none" 
	d="
M346.573730,229.056641 
	C346.690826,229.287842 346.614868,229.603424 346.258911,229.894043 
	C346.033508,229.582596 346.167419,229.339905 346.573730,229.056641 
z"/>
<path fill="#D4D5D5" opacity="1.000000" stroke="none" 
	d="
M305.427612,272.937073 
	C305.303101,272.690308 305.372559,272.352753 305.729401,272.056824 
	C305.965210,272.390106 305.833496,272.639404 305.427612,272.937073 
z"/>
<path fill="#D5D5D5" opacity="1.000000" stroke="none" 
	d="
M346.049805,272.329529 
	C346.294830,272.250275 346.610504,272.369568 346.846466,272.758484 
	C346.467560,272.969666 346.252106,272.803040 346.049805,272.329529 
z"/>
</svg>
