<svg version="1.0" xmlns="http://www.w3.org/2000/svg"
 width="500.000000pt" height="500.000000pt" viewBox="0 0 500.000000 500.000000"
 preserveAspectRatio="xMidYMid meet">

<g transform="translate(0.000000,500.000000) scale(0.100000,-0.100000)"
fill="#000000" stroke="none">
<path d="M1120 2500 l0 -790 210 0 210 0 0 790 0 790 -210 0 -210 0 0 -790z"/>
<path d="M1875 3278 c-3 -7 -4 -362 -3 -788 l3 -775 208 -3 207 -2 0 790 0
790 -205 0 c-155 0 -207 -3 -210 -12z"/>
<path d="M2620 2500 l0 -790 210 0 210 0 0 290 0 290 210 0 210 0 0 -290 0
-290 210 0 210 0 0 790 0 790 -210 0 -210 0 0 -290 0 -290 -210 0 -210 0 0
290 0 290 -210 0 -210 0 0 -790z"/>
</g>
</svg>
